<svg aria-hidden="true" style="position: absolute; width: 0; height: 0; overflow: hidden;" version="1.1" xmlns="http://www.w3.org/2000/svg" xmlns:xlink="http://www.w3.org/1999/xlink">
<defs>
<symbol id="icon-icon-add-to-cart" viewBox="0 0 32 32">
<path d="M10.031 29.333c1.052 0 1.905-0.853 1.905-1.905s-0.853-1.905-1.905-1.905v0c-1.052 0-1.905 0.853-1.905 1.905s0.853 1.905 1.905 1.905v0zM23.366 29.333c1.052 0 1.905-0.853 1.905-1.905s-0.853-1.905-1.905-1.905v0c-1.052 0-1.905 0.853-1.905 1.905s0.853 1.905 1.905 1.905v0zM5.251 3.432c-0.090-0.439-0.474-0.765-0.934-0.765-0 0-0 0-0 0h-3.809v1.905h3.029l3.657 18.283c0.090 0.439 0.473 0.764 0.932 0.765h17.143v-1.905h-16.36l-0.762-3.81h17.125c0.453-0 0.832-0.317 0.928-0.74l0.001-0.006 2.159-9.73h-1.95l-1.903 8.571h-16.742l-2.514-12.568z"></path>
<path d="M17.652 6.476v-3.81h-1.905v3.81h-3.81v1.905h3.81v3.81h1.905v-3.81h3.81v-1.905h-3.81z"></path>
</symbol>
<symbol id="icon-icon-carbon-neutral" viewBox="0 0 32 32">
<path d="M12.19 29.333h-2.857v-1.905h2.857v-11.842l-3.348-2.010 0.981-1.634 3.346 2.008c0.557 0.34 0.923 0.944 0.925 1.633v11.843c0 1.052-0.853 1.905-1.905 1.905v0z"></path>
<path d="M21.714 29.333h-2.857c-1.052 0-1.905-0.853-1.905-1.905v0-10.476h5.714c0.001 0 0.002 0 0.004 0 2.102 0 3.806-1.704 3.806-3.806 0-0.134-0.007-0.266-0.020-0.396l0.001 0.016c-0.265-1.948-1.918-3.434-3.919-3.434-0.027 0-0.054 0-0.081 0.001l0.004-0h-1.509l-0.168-0.742c-0.546-2.405-2.853-4.020-5.739-4.020-2.283 0.008-4.251 1.349-5.166 3.285l-0.015 0.035-0.296 0.635-0.823-0.11c-0.107-0.019-0.233-0.032-0.362-0.036l-0.005-0c-2.104 0-3.81 1.706-3.81 3.81s1.706 3.81 3.81 3.81v0 1.905c-3.156 0-5.714-2.558-5.714-5.714s2.558-5.714 5.714-5.714v0h0.076c1.345-2.287 3.79-3.8 6.589-3.81h0.001c3.505 0 6.373 1.883 7.383 4.762h0.030c0.020-0 0.044-0 0.068-0 2.991 0 5.459 2.236 5.823 5.128l0.003 0.029c0.017 0.167 0.027 0.361 0.027 0.558 0 3.156-2.558 5.714-5.714 5.714-0 0-0.001 0-0.001 0h-3.809v8.571h2.857v1.905z"></path>
</symbol>
<symbol id="icon-icon-decrement-quantity" viewBox="0 0 32 32">
<path d="M0 14h32v4h-32v-4z"></path>
</symbol>
<symbol id="icon-icon-increment-quantity" viewBox="0 0 32 32">
<path d="M32 14h-14v-14h-4v14h-14v4h14v14h4v-14h14v-4z"></path>
</symbol>
<symbol id="icon-icon-order-confirmed" viewBox="0 0 32 32">
<path d="M14 21.414l-5-5.001 1.413-1.413 3.587 3.586 7.585-7.586 1.415 1.415-9 8.999z"></path>
<path d="M16 2c-2.769 0-5.476 0.821-7.778 2.359s-4.097 3.725-5.156 6.283c-1.060 2.558-1.337 5.373-0.797 8.089s1.874 5.21 3.832 7.168c1.958 1.958 4.452 3.291 7.168 3.832s5.531 0.263 8.089-0.797c2.558-1.060 4.745-2.854 6.283-5.156s2.359-5.009 2.359-7.778c0-3.713-1.475-7.274-4.1-9.899s-6.186-4.101-9.9-4.101zM16 28c-2.373 0-4.693-0.704-6.667-2.022s-3.511-3.193-4.42-5.385-1.146-4.606-0.683-6.933c0.463-2.328 1.606-4.466 3.284-6.144s3.816-2.821 6.144-3.284c2.328-0.463 4.741-0.225 6.933 0.683s4.067 2.446 5.385 4.42c1.319 1.973 2.022 4.293 2.022 6.667 0 3.183-1.264 6.235-3.515 8.485s-5.303 3.515-8.485 3.515z"></path>
</symbol>
<symbol id="icon-icon-remove-item" viewBox="0 0 32 32">
<path d="M26.8 30l-10.8-10.8-10.8 10.8-3.2-3.2 10.8-10.8-10.8-10.8 3.2-3.2 10.8 10.8 10.8-10.8 3.2 3.2-10.8 10.8 10.8 10.8-3.2 3.2z" fill="hsl(14, 86%, 42%)"></path>
</symbol>
<symbol id="icon-illustration-empty-cart" viewBox="0 0 32 32">
<path fill="#260f08" style="fill: var(--color1, #260f08)" opacity="0.15" d="M2.109 27.602c0 0.265 1.159 0.52 3.222 0.707s4.861 0.293 7.778 0.293c2.917 0 5.715-0.105 7.778-0.293s3.222-0.442 3.222-0.707-1.159-0.52-3.222-0.707c-2.063-0.188-4.861-0.293-7.778-0.293s-5.715 0.105-7.778 0.293c-2.063 0.188-3.222 0.442-3.222 0.707z"></path>
<path fill="#87635a" style="fill: var(--color2, #87635a)" d="M29.996 6.055l-11.787 1.44 1.080 8.84 11.193-1.367c0.243-0.029 0.439-0.202 0.503-0.429l0.001-0.004c0.021-0.076 0.026-0.155 0.016-0.233l-1.006-8.246z"></path>
<path fill="#ad8a85" style="fill: var(--color3, #ad8a85)" d="M18.64 11.036l11.787-1.438 0.359 2.944-11.785 1.44-0.36-2.945z"></path>
<path fill="#caafa7" style="fill: var(--color4, #caafa7)" d="M21.409 9.195c-0.042-0.294-0.292-0.518-0.594-0.518-0.026 0-0.051 0.002-0.075 0.005l0.003-0c-0.294 0.039-0.518 0.288-0.518 0.589 0 0.027 0.002 0.054 0.005 0.081l-0-0.003 0.073 0.587c0 0.010 0.001 0.021 0.001 0.032 0 0.493-0.4 0.893-0.893 0.893-0.427 0-0.784-0.3-0.872-0.7l-0.001-0.006-0.327-2.667 3.62-4.22c4.813-0.173 8.533 0.9 8.753 2.7l0.32 2.633c0.001 0.011 0.002 0.024 0.002 0.037 0 0.162-0.131 0.293-0.293 0.293-0.015 0-0.030-0.001-0.044-0.003l0.002 0c-0.503-0.098-0.886-0.507-0.946-1.014l-0.001-0.006c-0.038-0.295-0.288-0.521-0.59-0.521-0.328 0-0.595 0.266-0.595 0.595 0 0.026 0.002 0.051 0.005 0.076l-0-0.003 0.073 0.587c0.003 0.022 0.004 0.047 0.004 0.073 0 0.139-0.047 0.266-0.126 0.367l0.001-0.001c-0.095 0.121-0.234 0.204-0.393 0.224l-0.003 0c-0.022 0.003-0.047 0.005-0.073 0.005-0.138 0-0.266-0.047-0.367-0.126l0.001 0.001c-0.121-0.095-0.204-0.234-0.224-0.393l-0-0.003c-0.029-0.241-0.199-0.436-0.425-0.501l-0.004-0.001c-0.048-0.014-0.104-0.022-0.161-0.022-0.189 0-0.357 0.088-0.466 0.225l-0.001 0.001c-0.079 0.1-0.127 0.228-0.127 0.367 0 0.025 0.002 0.049 0.004 0.073l-0-0.003 0.073 0.593c0.006 0.043 0.009 0.094 0.009 0.144 0 0.656-0.532 1.188-1.188 1.188-0.278 0-0.534-0.095-0.736-0.255l0.003 0.002c-0.242-0.191-0.407-0.469-0.446-0.787l-0.001-0.006-0.107-0.887c-0.035-0.294-0.282-0.519-0.583-0.519-0.030 0-0.059 0.002-0.087 0.006l0.003-0c-0.297 0.039-0.524 0.291-0.524 0.595 0 0.025 0.002 0.050 0.005 0.074l-0-0.003 0.040 0.293c0.003 0.022 0.005 0.047 0.005 0.073 0 0.328-0.266 0.595-0.595 0.595-0.302 0-0.552-0.226-0.59-0.518l-0-0.003-0.027-0.32z"></path>
<path fill="#87635a" style="fill: var(--color2, #87635a)" d="M1.863 12.948c-0.24 2.12 4.186 4.36 9.867 4.987s10.52-0.54 10.76-2.667l-0.987 8.873c-0.24 2.12-5.060 3.334-10.76 2.667s-10.127-2.873-9.886-5.013l1.006-8.847z"></path>
<path fill="#ad8a85" style="fill: var(--color3, #ad8a85)" d="M1.456 16.488c-0.24 2.113 4.186 4.36 9.893 5.007s10.513-0.547 10.753-2.667l-0.333 2.947c-0.24 2.12-5.060 3.333-10.76 2.666s-10.127-2.887-9.886-5.006l0.333-2.947z"></path>
<path fill="#caafa7" style="fill: var(--color4, #caafa7)" d="M15.209 10.695c-0.673-0.147-1.554-0.29-2.447-0.394l-0.14-0.013c-6-0.667-11.113 0.473-11.333 2.593l-0.533 4.72c-0.005 0.034-0.007 0.074-0.007 0.114 0 0.491 0.398 0.889 0.889 0.889 0.461 0 0.839-0.35 0.884-0.799l0-0.004c0.030-0.469 0.418-0.838 0.892-0.838 0.493 0 0.894 0.4 0.894 0.893 0 0.051-0.004 0.101-0.013 0.15l0.001-0.005-0.2 1.773c-0.006 0.050-0.009 0.108-0.009 0.167 0 0.819 0.664 1.483 1.483 1.483 0.76 0 1.387-0.572 1.473-1.309l0.001-0.007c0.052-0.446 0.428-0.789 0.883-0.789 0.491 0 0.889 0.398 0.889 0.889 0 0.035-0.002 0.070-0.006 0.104l0-0.004-0.067 0.587c-0.002 0.022-0.003 0.047-0.003 0.073 0 0.493 0.4 0.893 0.893 0.893 0.446 0 0.816-0.327 0.883-0.755l0.001-0.005 0.033-0.3c0.088-0.743 0.714-1.313 1.473-1.313 0.819 0 1.483 0.664 1.483 1.483 0 0.060-0.004 0.119-0.010 0.177l0.001-0.007-0.1 0.88c-0.002 0.021-0.003 0.046-0.003 0.070 0 0.493 0.4 0.893 0.893 0.893 0.445 0 0.814-0.326 0.882-0.752l0.001-0.005 0.233-2.067c0.030-0.132 0.147-0.229 0.286-0.229 0.014 0 0.028 0.001 0.042 0.003l-0.002-0c0.148 0.013 0.263 0.136 0.263 0.286 0 0.014-0.001 0.029-0.003 0.043l0-0.002c-0.003 0.036-0.005 0.078-0.005 0.12 0 0.821 0.666 1.487 1.487 1.487 0.746 0 1.363-0.549 1.47-1.265l0.001-0.008 0.134-1.18c0.058-0.44 0.431-0.775 0.882-0.775 0.491 0 0.889 0.398 0.889 0.889 0 0.030-0.002 0.060-0.005 0.090l0-0.004c-0.002 0.022-0.003 0.047-0.003 0.073 0 0.493 0.4 0.893 0.893 0.893 0.446 0 0.816-0.327 0.883-0.755l0.001-0.005 0.447-3.886c0.003-0.023 0.005-0.050 0.005-0.077 0-0.304-0.228-0.554-0.522-0.589l-0.003-0-11.507-1.333 4.173-3.24z"></path>
<path fill="#87635a" style="fill: var(--color2, #87635a)" d="M14.789 14.415l0.42-3.72-4.207 3.293 3.787 0.427z"></path>
</symbol>
<symbol id="icon-delivery-truck" viewBox="0 0 32 32">
<path d="M31.059 25.3l0.44-2.642-1.722-4.594h-6.884l0.404-3.097h-16.009l-1.683 12.903h1.145c-0.024 0.169-0.041 0.341-0.041 0.516 0 1.992 1.621 3.613 3.613 3.613s3.613-1.621 3.613-3.613c0-0.175-0.017-0.347-0.041-0.516h6.792c-0.024 0.169-0.041 0.341-0.041 0.516 0 1.992 1.621 3.613 3.613 3.613s3.613-1.621 3.613-3.613h3.097c0.569 0 1.032-0.463 1.032-1.032v-1.032c0-0.538-0.415-0.976-0.941-1.023zM25.297 21.685l0.431-2.588h3.334l1.161 3.097h-4.495c-0.241 0-0.437-0.196-0.437-0.437 0-0.024 0.002-0.049 0.006-0.072zM8.195 16h13.927l-0.404 3.097h-13.927l0.404-3.097zM10.323 30.968c-1.423 0-2.581-1.158-2.581-2.581s1.158-2.581 2.581-2.581c1.423 0 2.581 1.158 2.581 2.581s-1.158 2.581-2.581 2.581zM21.314 22.194h-12.024v1.032h11.889l-0.471 3.613h-7.126c-0.582-1.219-1.822-2.065-3.259-2.065s-2.678 0.846-3.259 2.065h-0.282l0.471-3.613h1.005v-1.032h-0.871l0.269-2.065h13.927l-0.269 2.065zM24.258 30.968c-1.423 0-2.581-1.158-2.581-2.581s1.158-2.581 2.581-2.581c1.423 0 2.581 1.158 2.581 2.581s-1.158 2.581-2.581 2.581zM26.839 25.29v0.573c-0.657-0.671-1.57-1.090-2.581-1.090-0.9 0-1.721 0.332-2.354 0.878l0.855-6.556h1.922l-0.403 2.419c-0.012 0.079-0.020 0.16-0.020 0.241 0 0.81 0.659 1.469 1.469 1.469h4.631l-0.344 2.065h-3.176zM30.968 27.355h-3.097v-1.032h3.097v1.032z"></path>
<path d="M0 14.968h1.032v1.032h-1.032v-1.032z"></path>
<path d="M2.065 14.968h4.129v1.032h-4.129v-1.032z"></path>
<path d="M0 20.645h1.032v1.032h-1.032v-1.032z"></path>
<path d="M2.065 20.645h3.613v1.032h-3.613v-1.032z"></path>
<path d="M0 25.806h4.645v1.032h-4.645v-1.032z"></path>
<path d="M11.355 6.71h1.032c0-0.569 0.463-1.032 1.032-1.032s1.032 0.463 1.032 1.032v0.197l-3.097 1.548v1.351h4.129v-1.032h-2.459l2.459-1.229v-0.835c0-1.139-0.926-2.065-2.065-2.065s-2.065 0.926-2.065 2.065z"></path>
<path d="M18.323 4.645l-1.806 2.409v1.204h2.065v1.548h1.032v-1.548h1.032v-1.032h-1.032v-2.581h-1.29zM18.581 7.226h-0.903l0.903-1.204v1.204z"></path>
<path d="M16 14.452c3.985 0 7.226-3.241 7.226-7.226 0-3.144-2.011-5.907-5.002-6.874l-0.317 0.982c2.564 0.829 4.287 3.197 4.287 5.892 0 3.415-2.778 6.194-6.194 6.194s-6.194-2.778-6.194-6.194c0-1.509 0.56-2.941 1.548-4.065v1.484h1.032v-3.097h-3.613v1.032h1.719c-1.099 1.295-1.719 2.927-1.719 4.645 0 3.985 3.241 7.226 7.226 7.226z"></path>
<path d="M17.111 0.093c-0.407-0.063-0.771-0.093-1.111-0.093v1.032c0.287 0 0.599 0.027 0.953 0.082l0.158-1.020z"></path>
</symbol>
<symbol id="icon-st-place" viewBox="0 0 32 32">
<path d="M17.202 10.097l-2.126 0.001c-0.139 0-0.257 0.040-0.357 0.118l-1.487 0.905c-0.099 0.080-0.138 0.158-0.138 0.278l0.001 2.458c0 0.159 0.099 0.198 0.218 0.118l1.369-0.745h0.039l0.002 8.777c0 0.118 0.080 0.197 0.198 0.197l2.284-0c0.119 0 0.198-0.079 0.198-0.198l-0.003-11.711c0-0.119-0.079-0.197-0.198-0.197z"></path>
<path d="M8.734 26.619c-1.081-0.344-2.161-0.24-2.836 0.199 0.256 0.733 1.050 1.431 2.131 1.774s2.161 0.24 2.836-0.199c-0.256-0.733-1.050-1.432-2.13-1.773z"></path>
<path d="M7.913 25.457c0.53-0.548 0.791-1.498 0.615-2.507s-0.743-1.805-1.425-2.128c-0.529 0.547-0.792 1.498-0.615 2.507s0.743 1.806 1.425 2.128z"></path>
<path d="M4.275 22.463c-0.933-0.589-1.991-0.745-2.759-0.482 0.036 0.77 0.595 1.633 1.528 2.222s1.991 0.745 2.759 0.481c-0.037-0.771-0.595-1.632-1.527-2.221z"></path>
<path d="M4.954 17.112c-0.579 0.428-0.973 1.275-0.968 2.243s0.407 1.799 0.991 2.203c0.58-0.429 0.973-1.275 0.968-2.243s-0.408-1.798-0.991-2.203z"></path>
<path d="M3.446 15.541c0.713-0.145 1.449-0.746 1.881-1.623 0.433-0.877 0.447-1.796 0.106-2.405-0.714 0.146-1.45 0.746-1.882 1.624-0.433 0.876-0.447 1.795-0.106 2.404z"></path>
<path d="M2.402 13.324c0.538-0.431 0.881-1.254 0.837-2.18s-0.461-1.704-1.036-2.071c-0.538 0.43-0.881 1.253-0.837 2.179 0.042 0.925 0.461 1.705 1.037 2.071z"></path>
<path d="M7.79 7.307c-0.657-0.066-1.477 0.259-2.124 0.906s-0.948 1.441-0.846 2.062c0.658 0.066 1.477-0.259 2.124-0.905s0.948-1.44 0.847-2.062z"></path>
<path d="M5.833 6.655c0.28-0.783 0.204-1.559-0.141-2.038-0.587 0.195-1.148 0.775-1.429 1.559-0.28 0.782-0.204 1.558 0.141 2.037 0.586-0.196 1.148-0.775 1.428-1.558z"></path>
<path d="M9.008 5.128c0.605-0.599 0.889-1.337 0.797-1.917-0.611-0.063-1.375 0.236-1.981 0.835-0.604 0.598-0.888 1.337-0.796 1.916 0.612 0.064 1.376-0.235 1.98-0.834z"></path>
<path d="M2.183 16.405c-0.529-0.813-1.324-1.308-2.046-1.352-0.267 0.655-0.146 1.569 0.382 2.381s1.324 1.308 2.046 1.352c0.266-0.656 0.146-1.569-0.382-2.381z"></path>
<path d="M23.266 26.619c-1.080 0.341-1.874 1.040-2.13 1.773 0.675 0.439 1.755 0.543 2.836 0.199s1.874-1.040 2.13-1.774c-0.676-0.439-1.755-0.543-2.836-0.199z"></path>
<path d="M23.473 22.95c-0.176 1.009 0.085 1.959 0.615 2.507 0.682-0.322 1.25-1.12 1.425-2.128s-0.086-1.96-0.615-2.507c-0.682 0.323-1.249 1.12-1.425 2.128z"></path>
<path d="M27.725 22.463c-0.933 0.589-1.491 1.45-1.528 2.221 0.768 0.263 1.827 0.107 2.759-0.481s1.492-1.452 1.528-2.222c-0.768-0.263-1.827-0.106-2.76 0.482z"></path>
<path d="M27.046 17.112c-0.584 0.405-0.987 1.235-0.991 2.202-0.006 0.968 0.388 1.815 0.967 2.243 0.585-0.404 0.987-1.235 0.992-2.203s-0.388-1.815-0.967-2.243z"></path>
<path d="M26.567 11.512c-0.341 0.61-0.328 1.528 0.105 2.405s1.168 1.478 1.882 1.623c0.341-0.609 0.327-1.528-0.106-2.404-0.432-0.878-1.168-1.479-1.881-1.624z"></path>
<path d="M29.599 13.324c0.576-0.366 0.994-1.146 1.037-2.071s-0.3-1.749-0.838-2.179c-0.576 0.366-0.993 1.146-1.036 2.071s0.3 1.749 0.837 2.18z"></path>
<path d="M27.18 10.275c0.101-0.621-0.2-1.416-0.846-2.062s-1.466-0.971-2.124-0.905c-0.101 0.622 0.2 1.416 0.847 2.062s1.465 0.971 2.123 0.905z"></path>
<path d="M27.596 8.213c0.345-0.479 0.421-1.255 0.141-2.037-0.28-0.783-0.841-1.364-1.428-1.559-0.345 0.479-0.421 1.255-0.141 2.038s0.841 1.363 1.428 1.558z"></path>
<path d="M24.972 5.962c0.092-0.578-0.192-1.317-0.796-1.916s-1.369-0.898-1.98-0.835c-0.092 0.58 0.192 1.318 0.797 1.917s1.368 0.898 1.98 0.834z"></path>
<path d="M31.863 15.052c-0.722 0.045-1.517 0.539-2.046 1.352-0.529 0.812-0.648 1.725-0.382 2.381 0.722-0.044 1.518-0.539 2.046-1.352s0.649-1.726 0.382-2.381z"></path>
</symbol>
<symbol id="icon-shop" viewBox="0 0 32 32">
<path d="M3.16 30.72h25.68c0.41 0 0.75-0.34 0.75-0.75v-21.35c0-0.41-0.34-0.75-0.75-0.75h-5.83v-5.84c0-0.41-0.34-0.75-0.75-0.75h-12.63c-0.41 0-0.75 0.34-0.75 0.75v5.84h-5.72c-0.41 0-0.75 0.34-0.75 0.75v21.35c0 0.41 0.34 0.75 0.75 0.75zM12.83 29.22v-11.38h6.34v11.38h-6.34zM28.090 29.22h-7.42v-12.13c0-0.41-0.34-0.75-0.75-0.75h-7.84c-0.41 0-0.75 0.34-0.75 0.75v12.13h-7.42v-15.94h24.18v15.93zM10.38 2.78h11.13v5.090h-11.13v-5.090zM3.91 9.37h24.18v2.41h-24.18v-2.41z"></path>
<path d="M5.44 24.22h4.25c0.41 0 0.75-0.34 0.75-0.75v-8.54c0-0.41-0.34-0.75-0.75-0.75h-4.25c-0.41 0-0.75 0.34-0.75 0.75v8.54c0 0.41 0.34 0.75 0.75 0.75zM6.19 15.68h2.75v7.040h-2.75v-7.040z"></path>
<path d="M22.31 24.22h4.25c0.41 0 0.75-0.34 0.75-0.75v-8.54c0-0.41-0.34-0.75-0.75-0.75h-4.25c-0.41 0-0.75 0.34-0.75 0.75v8.54c0 0.41 0.34 0.75 0.75 0.75zM23.060 15.68h2.75v7.040h-2.75v-7.040z"></path>
<path d="M12.44 5.43s0.070-0.040 0.1-0.070c0.040-0.030 0.070-0.080 0.090-0.13 0.030-0.050 0.040-0.11 0.040-0.18 0-0.12-0.030-0.22-0.080-0.3s-0.13-0.15-0.23-0.2c-0.1-0.050-0.24-0.070-0.4-0.070h-0.87s-0.040 0-0.050 0.020c-0.010 0.010-0.020 0.030-0.020 0.050v1.86s0 0.040 0.020 0.050c0.010 0.010 0.030 0.020 0.050 0.020h0.9c0.16 0 0.29-0.020 0.4-0.070s0.19-0.12 0.25-0.21c0.060-0.090 0.080-0.2 0.080-0.33 0-0.1-0.030-0.2-0.080-0.27-0.060-0.080-0.12-0.13-0.19-0.17zM11.53 4.85h0.37c0.080 0 0.14 0.020 0.18 0.060s0.060 0.090 0.060 0.15-0.020 0.11-0.060 0.15c-0.040 0.040-0.1 0.060-0.18 0.060h-0.37v-0.42zM12.12 6.040s-0.1 0.070-0.19 0.070h-0.4v-0.47h0.4c0.080 0 0.14 0.020 0.18 0.070s0.060 0.1 0.060 0.17c0 0.060-0.020 0.12-0.060 0.16z"></path>
<path d="M14.21 5.13c-0.050-0.050-0.13-0.090-0.21-0.12-0.090-0.030-0.19-0.040-0.32-0.040s-0.22 0.010-0.3 0.040c-0.080 0.030-0.15 0.070-0.21 0.11-0.050 0.040-0.090 0.090-0.12 0.13-0.030 0.050-0.040 0.080-0.040 0.12 0 0.020 0 0.030 0.010 0.040s0.030 0.020 0.050 0.020h0.32s0.050-0.010 0.070-0.040c0.020-0.040 0.050-0.070 0.080-0.090s0.080-0.030 0.13-0.030c0.080 0 0.13 0.020 0.16 0.050 0.030 0.040 0.040 0.090 0.040 0.16v0.040l-0.36 0.050c-0.18 0.030-0.33 0.080-0.44 0.16s-0.17 0.19-0.17 0.32c0 0.080 0.020 0.16 0.070 0.23s0.11 0.12 0.19 0.16c0.080 0.040 0.17 0.060 0.28 0.060 0.070 0 0.14 0 0.2-0.030 0.060-0.020 0.11-0.040 0.15-0.070s0.080-0.060 0.1-0.1v0.1s0 0.040 0.020 0.050c0.010 0.010 0.030 0.020 0.050 0.020h0.33s0.040 0 0.050-0.020c0.010-0.010 0.020-0.030 0.020-0.050v-0.87c0-0.080-0.010-0.16-0.040-0.23s-0.070-0.13-0.12-0.18zM13.88 5.85c0 0.080-0.010 0.14-0.040 0.19s-0.060 0.090-0.11 0.11c-0.040 0.020-0.090 0.040-0.15 0.040-0.040 0-0.070 0-0.1-0.020-0.030-0.010-0.060-0.030-0.070-0.050-0.020-0.020-0.030-0.050-0.030-0.080 0-0.040 0.020-0.080 0.060-0.11s0.11-0.060 0.2-0.070l0.24-0.040v0.040z"></path>
<path d="M15.57 5.66l0.52-0.56s0.010-0.010 0.020-0.020c0 0 0-0.020 0-0.030 0-0.020 0-0.030-0.020-0.040-0.010-0.010-0.030-0.020-0.040-0.020h-0.38s-0.040 0-0.060 0.010c-0.010 0-0.030 0.020-0.040 0.030l-0.4 0.44v-0.96s0-0.040-0.020-0.050c-0.010-0.010-0.030-0.020-0.050-0.020h-0.33s-0.040 0-0.050 0.020c-0.010 0.010-0.020 0.030-0.020 0.050v1.89s0 0.040 0.020 0.050c0.010 0.010 0.030 0.020 0.050 0.020h0.33s0.040 0 0.050-0.020c0.010-0.010 0.020-0.030 0.020-0.050v-0.52l0.45 0.54s0.020 0.020 0.040 0.030c0.010 0.010 0.030 0.020 0.060 0.020h0.39s0.030 0 0.050-0.020c0.010-0.010 0.020-0.030 0.020-0.040 0-0.020 0-0.030-0.020-0.050l-0.59-0.71z"></path>
<path d="M17.47 5.070c-0.11-0.070-0.25-0.1-0.42-0.1-0.15 0-0.28 0.030-0.38 0.080-0.11 0.060-0.2 0.14-0.26 0.25s-0.1 0.24-0.1 0.39v0.1c0 0.24 0.070 0.42 0.21 0.54 0.13 0.12 0.31 0.18 0.54 0.18 0.12 0 0.22-0.010 0.31-0.040s0.16-0.070 0.22-0.11c0.060-0.040 0.1-0.090 0.13-0.14s0.050-0.080 0.050-0.12c0-0.020 0-0.030-0.020-0.040-0.010-0.010-0.030-0.020-0.050-0.020h-0.35s-0.040 0-0.050 0c-0.010 0-0.020 0.020-0.040 0.040 0 0.010-0.020 0.030-0.040 0.040-0.020 0.020-0.040 0.030-0.060 0.040-0.030 0.010-0.060 0.020-0.1 0.020-0.050 0-0.1-0.010-0.13-0.040s-0.060-0.060-0.080-0.11c-0.020-0.050-0.030-0.1-0.030-0.15v0-0.020h0.92s0.040 0 0.050-0.020c0.010-0.010 0.020-0.030 0.020-0.050v-0.070c0-0.15-0.030-0.28-0.080-0.39-0.060-0.11-0.14-0.21-0.25-0.27zM17.3 5.59h-0.48c0-0.070 0-0.12 0.030-0.17 0.020-0.050 0.050-0.080 0.080-0.11 0.040-0.020 0.080-0.040 0.13-0.040s0.1 0.010 0.13 0.040c0.040 0.020 0.070 0.060 0.080 0.11 0.020 0.050 0.030 0.1 0.030 0.16v0z"></path>
<path d="M19.090 5h-0.13c-0.090 0-0.17 0.020-0.24 0.050s-0.13 0.080-0.18 0.14v-0.11s0-0.040-0.020-0.050c-0.010-0.010-0.030-0.020-0.050-0.020h-0.33s-0.040 0-0.050 0.020c-0.010 0.010-0.020 0.030-0.020 0.050v1.35s0 0.040 0.020 0.050c0.010 0.010 0.030 0.020 0.050 0.020h0.35s0.040 0 0.050-0.020c0.010-0.010 0.020-0.030 0.020-0.050v-0.73c0-0.080 0.020-0.14 0.060-0.18s0.1-0.060 0.18-0.060h0.28s0.040 0 0.050-0.020c0.010-0.010 0.020-0.030 0.020-0.050v-0.29s0-0.040-0.020-0.050c-0.010-0.010-0.030-0.020-0.050-0.020z"></path>
<path d="M20.8 5h-0.32s-0.040 0-0.060 0.020-0.020 0.030-0.030 0.040l-0.34 0.83-0.33-0.83s-0.010-0.030-0.020-0.040c-0.010-0.010-0.030-0.020-0.060-0.020h-0.33s-0.030 0-0.040 0.020c-0.010 0.010-0.020 0.030-0.020 0.040 0 0 0 0.020 0 0.030l0.55 1.3-0.22 0.54s0 0.010 0 0.020c0 0 0 0.010 0 0.020 0 0.020 0 0.030 0.020 0.040s0.030 0.020 0.040 0.020h0.32s0.040 0 0.060-0.020c0.010-0.010 0.020-0.030 0.030-0.040l0.81-1.88s0-0.030 0-0.040c0-0.020 0-0.030-0.020-0.040-0.010-0.010-0.030-0.020-0.040-0.020z"></path>
</symbol>
<symbol id="icon-calendar" viewBox="0 0 32 32">
<path d="M28.8 3.84h-1.92v-1.28c0-0.707-0.573-1.28-1.28-1.28v0h-1.28c-0.707 0-1.28 0.573-1.28 1.28v0 1.28h-5.12v-1.28c0-0.707-0.573-1.28-1.28-1.28v0h-1.28c-0.707 0-1.28 0.573-1.28 1.28v0 1.28h-5.12v-1.28c0-0.707-0.573-1.28-1.28-1.28v0h-1.28c-0.707 0-1.28 0.573-1.28 1.28v0 1.28h-1.92c-1.060 0-1.92 0.86-1.92 1.92v0 23.040c0 1.060 0.86 1.92 1.92 1.92v0h25.6c1.060 0 1.92-0.86 1.92-1.92v0-23.040c0-1.060-0.86-1.92-1.92-1.92v0zM24.32 2.56h1.28v3.84h-1.28zM15.36 2.56h1.28v1.843s0 0 0 0.077 0 0 0 0.090v1.83h-1.28zM6.4 2.56h1.28v3.84h-1.28zM3.2 5.12h1.92v1.28c0 0.707 0.573 1.28 1.28 1.28v0h1.28c0.707 0 1.28-0.573 1.28-1.28v0-1.28h5.12v1.28c0 0.707 0.573 1.28 1.28 1.28v0h1.28c0.707 0 1.28-0.573 1.28-1.28v0-1.28h5.12v1.28c0 0.707 0.573 1.28 1.28 1.28v0h1.28c0.707 0 1.28-0.573 1.28-1.28v0-1.28h1.92c0.353 0 0.64 0.287 0.64 0.64v0 4.48h-26.88v-4.48c0-0.353 0.287-0.64 0.64-0.64v0zM28.8 29.44h-25.6c-0.353 0-0.64-0.287-0.64-0.64v0-17.28h26.88v17.28c0 0.353-0.287 0.64-0.64 0.64v0z"></path>
<path d="M26.24 19.2h-7.68c-0.353 0-0.64 0.287-0.64 0.64v0 6.4c0 0.353 0.287 0.64 0.64 0.64v0h7.68c0.353 0 0.64-0.287 0.64-0.64v0-6.4c0-0.353-0.287-0.64-0.64-0.64v0zM25.6 25.6h-6.4v-5.12h6.4z"></path>
<path d="M8.32 14.080h-2.56c-0.353 0-0.64 0.287-0.64 0.64v0 2.56c0 0.353 0.287 0.64 0.64 0.64v0h2.56c0.353 0 0.64-0.287 0.64-0.64v0-2.56c0-0.353-0.287-0.64-0.64-0.64v0zM7.68 16.64h-1.28v-1.28h1.28z"></path>
<path d="M13.44 14.080h-2.56c-0.353 0-0.64 0.287-0.64 0.64v0 2.56c0 0.353 0.287 0.64 0.64 0.64v0h2.56c0.353 0 0.64-0.287 0.64-0.64v0-2.56c0-0.353-0.287-0.64-0.64-0.64v0zM12.8 16.64h-1.28v-1.28h1.28z"></path>
<path d="M8.32 20.48h-2.56c-0.353 0-0.64 0.287-0.64 0.64v0 2.56c0 0.353 0.287 0.64 0.64 0.64v0h2.56c0.353 0 0.64-0.287 0.64-0.64v0-2.56c0-0.353-0.287-0.64-0.64-0.64v0zM7.68 23.040h-1.28v-1.28h1.28z"></path>
<path d="M13.44 20.48h-2.56c-0.353 0-0.64 0.287-0.64 0.64v0 2.56c0 0.353 0.287 0.64 0.64 0.64v0h2.56c0.353 0 0.64-0.287 0.64-0.64v0-2.56c0-0.353-0.287-0.64-0.64-0.64v0zM12.8 23.040h-1.28v-1.28h1.28z"></path>
<path d="M18.56 17.92h2.56c0.353 0 0.64-0.287 0.64-0.64v0-2.56c0-0.353-0.287-0.64-0.64-0.64v0h-2.56c-0.353 0-0.64 0.287-0.64 0.64v0 2.56c0 0.353 0.287 0.64 0.64 0.64v0zM19.2 15.36h1.28v1.28h-1.28z"></path>
<path d="M26.24 14.080h-2.56c-0.353 0-0.64 0.287-0.64 0.64v0 2.56c0 0.353 0.287 0.64 0.64 0.64v0h2.56c0.353 0 0.64-0.287 0.64-0.64v0-2.56c0-0.353-0.287-0.64-0.64-0.64v0zM25.6 16.64h-1.28v-1.28h1.28z"></path>
</symbol>
<symbol id="icon-hamburger-menu" viewBox="0 0 32 32">
<path d="M26 16c0 1.104-0.896 2-2 2h-16c-1.104 0-2-0.896-2-2s0.896-2 2-2h16c1.104 0 2 0.896 2 2z"></path>
<path d="M26 8c0 1.104-0.896 2-2 2h-16c-1.104 0-2-0.896-2-2s0.896-2 2-2h16c1.104 0 2 0.896 2 2z"></path>
<path d="M26 24c0 1.104-0.896 2-2 2h-16c-1.104 0-2-0.896-2-2s0.896-2 2-2h16c1.104 0 2 0.896 2 2z"></path>
</symbol>
</defs>
</svg>
